<?xml version="1.0" standalone="no"?>
<!DOCTYPE svg PUBLIC "-//W3C//DTD SVG 20010904//EN"
 "http://www.w3.org/TR/2001/REC-SVG-20010904/DTD/svg10.dtd">
<svg version="1.0" xmlns="http://www.w3.org/2000/svg"
 width="1344.000000pt" height="896.000000pt" viewBox="0 0 1344.000000 896.000000"
 preserveAspectRatio="xMidYMid meet">

<g transform="translate(0.000000,896.000000) scale(0.100000,-0.100000)"
fill="#000000" stroke="none">
<path d="M0 4480 l0 -4480 1553 2 c1235 2 1551 6 1549 16 -3 17 27 15 34 -3 5
-13 76 -15 549 -15 352 0 546 4 550 10 3 6 2 10 -4 10 -5 0 -13 10 -17 23 -3
12 -13 29 -21 38 -13 15 -11 17 16 15 16 -1 33 -5 37 -9 10 -10 54 -9 54 2 0
5 8 7 18 5 30 -7 77 11 76 29 -3 35 -4 38 -14 32 -6 -3 -10 0 -10 8 0 8 -9 22
-20 32 -11 10 -18 21 -15 25 2 4 -1 7 -8 8 -48 6 -79 16 -84 27 -6 17 46 97
59 89 5 -3 7 11 5 33 -3 21 0 44 5 50 8 9 6 13 -6 13 -9 0 -19 7 -22 15 -4 9
-19 15 -38 15 -41 0 -53 24 -51 98 1 28 -1 52 -5 52 -12 0 -31 75 -20 78 6 2
10 15 10 28 0 24 15 58 35 79 6 5 31 10 57 10 25 0 44 3 42 7 -3 4 18 22 46
39 27 17 50 34 51 37 0 4 2 16 4 26 2 11 0 27 -5 36 -11 21 23 80 51 87 13 4
18 11 14 23 -5 17 10 37 30 40 14 1 8 65 -8 98 -7 15 -18 26 -23 25 -6 -1 -8
11 -6 28 2 16 10 29 18 29 14 0 18 12 15 37 -1 7 4 32 11 55 6 24 13 51 14 61
1 10 6 23 11 28 10 10 -4 109 -17 119 -14 10 -19 57 -9 95 16 64 20 105 10
105 -5 0 -12 8 -15 18 -7 22 -63 42 -99 35 -15 -3 -30 -17 -40 -39 -9 -19 -22
-34 -27 -34 -6 0 -8 -5 -4 -11 4 -7 1 -10 -7 -7 -8 3 -13 11 -11 17 1 6 -5 11
-13 11 -9 0 -19 8 -23 17 -4 10 -14 18 -22 18 -17 0 -40 -19 -40 -33 0 -5 -11
-12 -25 -14 -33 -7 -37 9 -40 148 -1 61 -6 117 -10 123 -3 7 5 27 20 46 14 19
22 35 17 35 -5 0 -9 6 -9 13 -1 22 -8 42 -18 49 -6 4 -2 8 8 8 9 0 17 -4 17
-10 0 -5 5 -10 11 -10 5 0 7 5 4 10 -3 6 1 10 10 10 9 0 14 -3 11 -8 -2 -4 14
-5 37 -3 50 5 50 5 -81 31 -121 24 -162 41 -347 145 -288 161 -469 241 -850
374 -221 78 -284 93 -377 92 -136 -1 -259 -42 -372 -123 l-69 -50 7 33 c3 18
14 49 24 68 18 37 108 119 118 108 4 -4 -6 -26 -21 -49 l-28 -43 45 41 c58 54
72 61 165 83 65 15 74 19 53 26 -36 11 -250 138 -250 148 0 5 21 -3 46 -17 83
-47 247 -117 364 -157 63 -22 121 -42 128 -44 7 -3 11 -1 8 4 -4 5 3 7 15 4
14 -4 17 -8 9 -13 -11 -7 -6 -10 65 -35 11 -4 4 3 -15 16 -26 17 -31 24 -18
27 16 3 38 -11 81 -52 12 -11 104 -50 206 -87 297 -108 399 -157 686 -331 168
-102 242 -133 363 -152 87 -14 217 -11 342 8 23 4 18 1 -15 -9 -27 -8 -74 -16
-102 -17 -53 -3 -65 -10 -39 -25 27 -15 136 -154 180 -228 23 -41 47 -71 51
-67 5 4 6 2 2 -3 -3 -6 18 -55 47 -108 50 -93 54 -97 59 -68 9 44 68 193 74
187 3 -3 -6 -33 -19 -68 -29 -72 -42 -132 -29 -123 6 3 17 29 25 58 9 28 21
59 27 67 9 13 10 12 5 -3 -15 -46 -36 -150 -31 -155 3 -3 5 0 5 7 0 7 5 9 10
6 6 -3 10 -1 10 4 0 6 5 11 11 11 6 0 -1 -14 -15 -31 -14 -17 -26 -40 -26 -52
0 -26 -15 -111 -46 -252 -23 -109 -36 -195 -28 -195 2 0 10 13 19 30 25 48 33
35 18 -32 -10 -45 -14 -156 -16 -380 -1 -174 -5 -311 -9 -303 -13 22 -29 196
-31 332 l-2 128 -45 -70 c-25 -38 -55 -87 -65 -108 -11 -21 -21 -33 -23 -28
-2 5 4 21 13 35 9 14 15 31 13 38 -5 13 -50 -77 -62 -122 l-7 -25 20 25 c26
32 26 24 1 -35 -54 -127 -84 -377 -54 -451 7 -17 18 -69 25 -117 l12 -87 2409
0 c1325 0 2407 3 2405 8 -23 45 -37 85 -31 90 3 4 9 2 11 -4 2 -6 10 -20 18
-30 14 -18 14 -18 15 2 0 11 -9 47 -20 80 -12 32 -45 156 -75 274 -96 380
-171 630 -224 744 -47 101 -168 310 -226 392 -25 34 -91 113 -148 176 -57 62
-119 130 -137 152 -70 77 -84 93 -188 201 -169 177 -176 184 -171 190 6 6 131
-95 215 -173 33 -31 73 -68 89 -82 29 -25 29 -25 -3 17 -49 63 -178 185 -259
245 -39 29 -89 69 -110 89 -63 58 -134 110 -144 104 -5 -4 14 -35 41 -71 55
-71 85 -123 76 -131 -3 -3 -24 11 -47 31 -24 20 -49 36 -56 36 -15 0 -19 12
61 -168 25 -56 46 -105 46 -108 0 -3 -9 -2 -21 1 -20 7 -21 5 -15 -55 4 -35 9
-68 13 -74 4 -7 2 -8 -5 -1 -5 6 -63 105 -127 220 -118 211 -199 340 -284 449
-82 105 -84 106 -56 42 31 -73 27 -95 -7 -41 -14 23 -61 83 -105 135 -43 52
-106 131 -140 175 -71 93 -103 128 -110 121 -3 -2 4 -33 15 -68 27 -82 39
-164 23 -154 -6 4 -23 31 -37 59 -15 29 -34 63 -44 77 -10 14 -62 113 -116
220 -54 107 -99 188 -100 180 -10 -82 -28 -161 -34 -149 -4 8 -10 50 -13 94
-5 78 -16 108 -62 180 -53 83 -51 84 -51 -49 1 -66 -2 -134 -7 -151 -4 -16
-10 -58 -14 -92 -9 -94 -23 -76 -23 30 -1 118 -13 215 -46 352 -14 61 -27 115
-29 122 -5 14 -62 -2 -152 -43 -29 -13 -53 -20 -52 -16 2 27 327 248 418 284
47 19 76 22 188 22 99 1 135 -2 145 -13 11 -11 9 -12 -9 -6 -14 4 -23 2 -23
-4 0 -6 7 -11 16 -11 8 0 12 -4 9 -10 -3 -6 1 -7 9 -4 9 3 16 1 16 -4 0 -15
48 -62 62 -62 6 0 8 -3 5 -6 -4 -4 3 -20 14 -36 12 -16 18 -35 15 -43 -7 -18
3 -47 14 -40 4 2 5 -7 2 -20 -2 -15 0 -25 7 -25 6 0 11 -6 11 -13 0 -7 9 -23
20 -35 11 -12 20 -31 20 -42 0 -12 8 -29 17 -38 19 -19 54 -25 52 -8 -1 6 -1
20 0 31 1 16 3 17 11 5 7 -12 10 -11 16 5 4 11 14 28 22 37 8 10 12 24 8 33
-3 9 -1 25 4 36 6 10 7 19 2 19 -11 0 -3 48 9 56 5 3 9 -6 9 -20 0 -14 4 -28
10 -31 6 -3 7 1 4 9 -3 9 4 31 16 51 12 20 20 42 17 49 -4 11 7 9 45 -7 44
-18 54 -28 74 -71 23 -50 31 -106 17 -120 -4 -3 -8 -12 -10 -19 -12 -59 -23
-91 -32 -96 -8 -6 -40 -90 -55 -146 -10 -35 -30 -79 -56 -123 -11 -18 -17 -38
-14 -44 5 -7 -2 -9 -22 -4 l-29 6 28 -16 c23 -12 159 -30 272 -34 6 0 3 -5 -5
-10 -8 -5 -62 -10 -120 -11 -91 -1 -100 -2 -65 -11 23 -6 94 -7 168 -4 72 4
127 3 127 -2 0 -9 -109 -34 -199 -47 -24 -3 -79 0 -123 6 -43 6 -81 9 -84 6
-15 -15 269 -206 390 -262 102 -48 112 -50 112 -23 0 28 63 228 79 248 19 25
35 69 35 98 0 28 11 64 53 187 19 53 31 73 53 86 28 15 29 18 34 115 3 54 11
111 19 125 11 22 123 103 253 182 58 36 93 12 76 -51 -11 -41 -4 -75 24 -115
19 -26 20 -37 14 -134 -11 -154 -45 -260 -107 -329 -36 -39 -23 -49 33 -26 28
12 88 -3 88 -22 0 -5 8 -19 19 -30 25 -29 11 -85 -22 -86 -12 -1 -35 -1 -52
-2 -85 -3 -96 7 -90 77 3 35 2 38 -9 22 -7 -9 -18 -17 -24 -17 -5 0 -8 -9 -5
-20 3 -12 1 -20 -5 -18 -12 4 -62 -67 -62 -87 0 -16 34 -38 44 -28 3 3 6 1 6
-5 0 -7 3 -11 8 -11 20 3 32 -3 32 -16 0 -9 7 -18 15 -21 8 -4 15 -12 15 -19
0 -8 9 -17 20 -20 16 -5 19 -12 14 -28 -6 -21 -5 -21 11 -5 16 15 19 15 38 -3
22 -20 72 -26 82 -9 9 14 85 -29 85 -48 0 -8 6 -12 14 -9 10 4 13 1 9 -9 -3
-8 1 -14 11 -14 9 0 16 5 16 10 0 6 7 10 15 10 9 0 12 6 9 15 -4 8 -2 15 3 15
6 0 15 12 21 26 10 20 10 24 0 18 -9 -6 -9 -3 1 9 7 9 10 17 7 17 -4 0 0 7 8
16 9 8 16 22 16 31 0 10 6 14 20 10 25 -6 65 45 62 80 -1 16 2 21 13 17 14 -6
20 6 16 29 -1 5 3 6 8 3 5 -4 12 -2 16 4 4 6 11 8 16 5 5 -4 9 1 9 9 0 8 5 18
12 22 7 4 8 3 4 -4 -4 -7 -5 -12 -1 -12 5 0 26 48 26 60 0 3 7 9 15 13 12 7
12 10 0 23 -17 16 -14 27 33 129 28 59 41 93 39 98 -3 8 57 65 65 60 5 -3 3
-10 -4 -15 -12 -8 -12 -9 0 -6 10 3 14 20 14 56 -1 28 3 49 8 46 5 -3 9 -12 9
-21 0 -9 3 -13 6 -10 7 6 14 59 16 105 0 16 5 21 15 17 12 -4 14 0 11 18 -4
19 -1 23 13 20 13 -4 18 4 24 39 4 23 13 66 20 93 8 28 16 70 19 95 5 44 22
131 71 360 13 63 29 149 35 190 7 41 20 109 31 152 10 42 30 132 44 200 13 67
40 163 59 212 20 48 38 104 42 124 4 19 13 47 20 61 8 14 14 33 14 42 0 9 5
31 12 49 l11 33 19 -22 c10 -13 18 -22 18 -20 0 2 3 45 6 94 5 94 9 104 104
311 64 138 67 151 47 186 -21 36 -18 41 72 124 60 56 172 194 237 294 32 50
44 64 92 118 18 20 50 57 70 82 20 24 51 56 67 69 52 44 224 215 222 222 -3 9
66 89 77 89 4 0 5 -7 2 -16 -3 -8 -2 -12 4 -9 6 3 10 13 10 21 0 8 3 13 8 12
14 -4 52 27 52 44 0 9 4 20 10 23 6 4 4 15 -6 30 -10 15 -14 34 -10 52 11 46
87 70 120 38 8 -9 18 -16 21 -15 26 1 35 -1 30 -10 -3 -5 9 -3 27 4 67 27 73
29 92 31 10 1 24 9 31 18 13 18 31 24 21 8 -4 -5 3 -7 14 -4 11 3 20 9 20 14
0 4 22 20 50 36 27 15 50 30 50 33 0 3 64 5 143 5 142 -1 236 10 248 28 4 5 9
5 13 -1 3 -6 15 -8 27 -5 17 5 20 11 15 35 -14 69 -150 225 -215 247 -19 6
-61 11 -95 11 -44 0 -70 6 -96 21 -30 19 -44 21 -115 15 -45 -4 -84 -3 -88 1
-10 9 40 52 69 59 11 3 88 4 170 2 l149 -3 57 -37 c120 -78 269 -255 306 -364
46 -136 64 -396 44 -629 -19 -212 -128 -556 -294 -920 -55 -121 -118 -260
-139 -310 -22 -49 -49 -109 -60 -133 -10 -23 -19 -53 -19 -65 0 -13 -12 -39
-26 -58 -41 -55 -234 -459 -234 -491 0 -16 -11 -50 -24 -76 -13 -26 -56 -119
-94 -207 -119 -270 -130 -310 -79 -284 12 6 -3 -11 -33 -39 -57 -53 -57 -58 0
-42 68 20 58 -15 -17 -61 -68 -40 -109 -88 -65 -75 9 2 31 7 49 11 28 6 31 4
26 -15 -3 -11 -32 -44 -65 -73 -53 -46 -96 -102 -86 -112 2 -2 34 7 71 20 134
49 153 16 36 -62 -59 -38 -109 -87 -109 -107 0 -3 14 -3 30 0 47 10 38 -17
-32 -93 -57 -63 -127 -162 -171 -242 l-18 -33 38 22 c21 13 42 27 47 32 14 11
26 10 26 -3 0 -13 -80 -128 -135 -194 -23 -27 -51 -64 -63 -82 -24 -33 -29
-89 -10 -95 7 -3 -3 -20 -24 -44 -48 -53 -128 -239 -128 -296 0 -11 -13 -38
-29 -61 -47 -69 -81 -144 -88 -195 l-6 -47 39 29 c21 16 59 46 84 67 54 44
110 79 128 79 25 0 10 -32 -51 -107 -35 -43 -74 -96 -87 -118 -13 -22 -39 -59
-58 -83 -19 -24 -32 -46 -28 -49 3 -3 23 -1 46 5 74 18 59 -16 -41 -93 -40
-31 -75 -92 -104 -180 -15 -44 -30 -84 -35 -90 -4 -5 -10 -25 -14 -44 -6 -33
-4 -32 77 46 138 133 190 154 92 38 -57 -67 -185 -240 -185 -250 0 -3 22 6 50
20 72 36 87 31 38 -12 -50 -46 -120 -119 -132 -141 -7 -13 -3 -14 28 -9 24 4
36 2 36 -6 0 -7 -39 -47 -86 -91 -47 -43 -96 -96 -109 -117 -25 -38 -55 -126
-98 -284 -62 -224 -65 -245 -43 -245 23 0 21 -3 -29 -77 -48 -70 -53 -88 -32
-118 11 -14 21 -17 46 -12 20 4 30 3 26 -3 -3 -6 -12 -10 -19 -10 -23 0 -157
-83 -173 -106 -15 -24 -12 -61 9 -116 l10 -28 714 0 714 0 0 29 c0 54 70 50
84 -4 l6 -25 976 0 c967 0 976 0 981 20 7 26 43 26 50 0 5 -19 14 -20 144 -20
l139 0 0 401 c0 343 -2 400 -14 396 -20 -8 -39 18 -31 41 3 11 15 22 25 25 20
5 20 36 20 4051 l0 4046 -802 0 -802 0 55 -33 c30 -18 98 -67 151 -110 110
-88 143 -106 160 -89 8 8 5 22 -10 51 -73 140 163 -71 294 -264 24 -34 47 -96
39 -104 -12 -11 -96 40 -171 105 -43 37 -101 77 -129 89 -78 35 -231 73 -325
80 -47 4 -151 20 -232 36 -150 30 -238 37 -238 19 0 -5 18 -13 39 -16 21 -3
51 -14 66 -24 l28 -18 -33 -20 c-18 -11 -54 -23 -79 -27 -59 -7 -132 -16 -148
-17 -19 -2 -16 -6 13 -21 l26 -14 -43 -17 c-25 -10 -107 -24 -189 -32 -174
-17 -184 -19 -285 -54 -105 -36 -189 -74 -247 -111 -25 -17 -108 -59 -184 -94
-233 -109 -374 -198 -351 -221 4 -4 46 3 95 14 48 12 99 22 112 22 94 -1 28
-70 -94 -99 -88 -21 -198 -79 -255 -134 -29 -29 -94 -113 -144 -187 -50 -74
-96 -140 -102 -146 -9 -10 -21 -35 -56 -119 -4 -11 -22 -67 -39 -125 -17 -58
-35 -116 -41 -128 -18 -45 -48 -168 -54 -228 -8 -71 8 -216 33 -286 16 -47 13
-66 -7 -53 -13 7 -71 128 -71 146 0 6 -9 24 -20 39 -34 48 -41 116 -26 247 8
65 15 150 16 189 1 88 29 192 80 300 40 88 179 290 267 390 56 65 72 105 31
82 -27 -16 -35 -22 -73 -51 -16 -13 -40 -29 -52 -36 -32 -16 -31 5 2 53 14 20
32 50 40 66 36 70 264 273 448 398 62 42 114 79 117 82 3 4 12 11 22 16 9 5
34 26 57 47 22 20 42 37 45 37 2 0 31 17 63 39 83 54 123 74 264 125 263 95
355 115 547 117 77 1 102 4 102 14 0 8 -15 17 -32 21 -31 6 -81 25 -120 45
-17 9 -4188 13 -4188 5 0 -2 25 -91 56 -197 52 -178 57 -203 59 -304 1 -60 7
-137 13 -170 17 -98 25 -181 15 -170 -5 6 -20 56 -33 113 l-24 102 -33 -71
c-36 -79 -125 -209 -130 -192 -2 6 16 56 41 111 79 175 89 213 84 330 -2 56
-2 102 -1 102 1 0 10 -12 18 -27 19 -32 15 -19 -14 52 -11 28 -39 112 -62 188
l-42 137 -736 0 -736 0 -57 -55 c-61 -58 -79 -68 -71 -35 10 37 -22 12 -58
-45 -19 -30 -40 -54 -47 -55 -7 0 -10 5 -6 11 10 16 -45 -20 -89 -58 -20 -18
-41 -33 -46 -33 -4 0 -28 -28 -51 -62 -24 -35 -52 -71 -62 -81 -10 -10 -19
-32 -19 -50 l-2 -32 -6 35 c-6 32 -8 33 -15 13 -4 -13 -13 -23 -20 -23 -7 0
-30 -19 -52 -42 -22 -24 -55 -57 -74 -74 -50 -43 -175 -222 -173 -245 3 -21
-13 -26 -20 -6 -5 14 -43 -27 -53 -58 -14 -41 -36 -66 -49 -55 -10 8 -24 -7
-59 -61 -25 -40 -46 -77 -46 -83 0 -6 -4 -5 -9 2 -6 10 -17 0 -42 -38 -28 -44
-35 -49 -37 -31 -2 11 5 33 16 48 29 42 64 114 58 121 -3 3 -30 -18 -60 -46
-93 -89 -80 -58 24 55 28 31 49 58 46 61 -3 2 -25 -11 -48 -30 -39 -31 -68
-49 -161 -96 -16 -8 -31 -11 -34 -8 -8 7 -8 7 52 45 61 37 48 39 -41 6 -37
-14 -69 -23 -72 -21 -2 3 19 30 48 60 29 31 48 56 41 56 -7 0 -44 -13 -83 -30
-38 -16 -76 -30 -83 -30 -17 0 -123 -57 -165 -90 -68 -52 -64 -42 15 41 44 46
83 85 88 87 4 2 7 8 7 14 0 5 -14 -1 -32 -13 -17 -13 -28 -17 -24 -10 7 10 4
10 -15 0 -13 -8 -31 -15 -39 -16 -8 -1 -37 -5 -65 -8 -71 -10 -136 -57 -304
-220 -79 -77 -139 -131 -133 -120 5 11 20 29 31 39 25 23 28 44 4 25 -16 -13
-17 -12 -4 3 7 10 17 16 21 13 8 -5 44 44 37 51 -2 2 -32 -22 -67 -54 l-64
-57 41 60 c46 69 76 125 67 125 -4 0 5 9 20 21 14 11 26 25 26 31 0 7 -7 5
-17 -4 -10 -8 -39 -27 -66 -42 -28 -16 -45 -32 -41 -38 4 -7 2 -8 -4 -4 -13 8
-114 -60 -207 -138 l-59 -51 23 40 c68 114 68 114 -10 39 -41 -38 -83 -77 -94
-85 -19 -14 -11 3 43 89 13 20 13 22 -2 16 -8 -3 -38 -37 -66 -74 -28 -37 -58
-74 -67 -81 -18 -15 0 13 69 109 21 28 36 52 33 52 -2 0 -35 -16 -72 -36 -124
-65 -187 -129 -228 -231 l-24 -58 -3 65 -3 65 -52 -70 c-29 -38 -58 -81 -65
-95 -16 -30 -37 -54 -43 -48 -4 4 -11 45 -14 81 -2 21 -21 2 -40 -40 l-21 -48
6 40 c3 22 16 59 29 82 19 35 20 41 7 34 -18 -10 -103 -98 -165 -171 -64 -76
14 57 96 163 33 42 33 42 -18 21 -20 -8 -51 -14 -69 -12 -27 3 -23 5 26 16 56
13 159 72 189 109 13 15 7 16 -72 10 -85 -6 -129 -2 -129 13 0 4 46 21 103 39
56 17 108 35 115 40 15 9 -60 30 -186 52 l-72 12 19 21 20 21 -87 50 c-48 27
-105 61 -127 75 -22 14 -65 39 -95 54 -30 16 -93 56 -140 89 -51 36 -131 80
-200 109 -63 27 -119 53 -125 59 -5 5 -13 9 -17 9 -19 0 -5 -23 37 -62 43 -40
55 -58 37 -58 -9 0 -39 23 -82 64 -14 12 -34 26 -45 29 -35 9 -303 134 -393
183 -160 86 -209 123 -328 247 -65 67 -114 115 -110 107 4 -8 -2 -4 -13 10
-12 14 -38 60 -58 103 l-37 77 -278 0 -278 0 0 -4480z m10110 4250 c0 -5 -5
-10 -11 -10 -5 0 -7 5 -4 10 3 6 8 10 11 10 2 0 4 -4 4 -10z m-94 -38 c18 -11
-2 -56 -22 -48 -9 3 -19 6 -24 6 -11 0 -21 30 -14 41 6 11 44 12 60 1z m2508
-21 c34 -21 121 -116 174 -190 83 -115 188 -299 177 -309 -2 -3 0 -11 6 -19 7
-7 7 -13 2 -13 -5 0 -22 21 -37 48 -93 162 -132 208 -168 198 -13 -3 -24 5
-35 22 -10 15 -42 59 -72 97 -73 95 -114 185 -84 185 3 0 20 -9 37 -19z
m-5990 -23 c-4 -7 -14 -21 -22 -30 -8 -9 -11 -23 -6 -30 4 -7 4 -10 -1 -6 -11
11 -36 -12 -28 -25 3 -6 1 -7 -5 -3 -7 4 -12 2 -12 -5 0 -7 -3 -10 -6 -6 -3 3
13 31 37 61 42 54 58 70 43 44z m3016 -88 c0 -5 -4 -10 -9 -10 -5 0 -7 -9 -4
-20 4 -15 0 -20 -15 -20 -20 0 -32 24 -25 48 5 14 53 17 53 2z m-3260 -24 c0
-2 -8 -10 -17 -17 -16 -13 -17 -12 -4 4 13 16 21 21 21 13z m3793 -76 c12 -19
16 -31 9 -26 -6 4 -12 3 -12 -2 0 -14 -25 -22 -49 -15 -26 7 -36 39 -21 68 16
30 44 21 73 -25z m-3683 36 c0 -2 -8 -10 -17 -17 -16 -13 -17 -12 -4 4 13 16
21 21 21 13z m-494 -168 c-9 -12 -16 -19 -16 -15 0 11 24 47 28 42 2 -2 -3
-14 -12 -27z m3644 11 c0 -5 -4 -9 -10 -9 -5 0 -10 7 -10 16 0 8 5 12 10 9 6
-3 10 -10 10 -16z m-3270 -33 c0 -2 -8 -10 -17 -17 -16 -13 -17 -12 -4 4 13
16 21 21 21 13z m-60 -47 c-14 -12 -43 -35 -64 -52 -40 -33 -129 -123 -164
-167 -11 -14 -23 -22 -26 -19 -10 9 133 158 202 210 64 48 101 68 52 28z
m3399 -3 c8 -10 8 -16 -3 -25 -10 -9 -16 -8 -26 3 -12 15 -6 36 9 36 5 0 14
-6 20 -14z m-3165 -11 c-10 -8 -27 -15 -36 -15 -9 0 -19 -4 -22 -9 -7 -11
-125 -36 -133 -27 -3 3 5 6 20 6 14 0 28 4 31 9 3 4 26 14 51 21 25 7 48 17
51 21 3 5 17 9 32 9 25 0 25 -1 6 -15z m-5119 -15 c3 -6 -1 -7 -9 -4 -18 7
-21 14 -7 14 6 0 13 -4 16 -10z m5245 -15 c0 -22 -234 -184 -247 -171 -3 2 6
10 19 17 46 24 154 97 188 128 36 32 40 34 40 26z m-740 -65 c-17 -32 -22 -18
-8 21 8 22 13 28 16 17 2 -9 -2 -27 -8 -38z m650 35 c-14 -8 -29 -14 -35 -14
-5 0 1 6 15 14 14 8 30 14 35 14 6 0 -1 -6 -15 -14z m-41 -28 c-2 -2 -17 -11
-34 -21 l-30 -17 24 20 c13 12 28 21 34 21 6 0 8 -1 6 -3z m2753 -14 c38 -35
8 -90 -40 -72 -30 11 -38 35 -22 65 16 28 36 31 62 7z m-2827 -33 c-3 -5 -11
-10 -16 -10 -6 0 -7 5 -4 10 3 6 11 10 16 10 6 0 7 -4 4 -10z m-65 -24 c0 -2
-7 -7 -16 -10 -8 -3 -12 -2 -9 4 6 10 25 14 25 6z m233 -27 c-39 -42 -60 -53
-60 -31 0 22 16 42 42 52 40 17 46 10 18 -21z m-298 1 c-11 -5 -27 -9 -35 -9
-9 0 -8 4 5 9 11 5 27 9 35 9 9 0 8 -4 -5 -9z m1019 -165 c-3 -44 -7 -87 -9
-95 -2 -8 -7 -46 -9 -85 -3 -38 -12 -108 -20 -155 -9 -47 -22 -155 -30 -240
-24 -238 -70 -427 -123 -506 -15 -23 -43 -62 -62 -88 -19 -25 -41 -60 -48 -77
-12 -29 -12 -31 4 -18 10 7 30 24 46 38 40 36 36 6 -8 -58 -41 -60 -43 -88
-10 -158 25 -54 41 -70 30 -30 -5 20 -5 20 9 -3 9 -14 15 -21 16 -16 0 5 6 3
13 -3 8 -6 17 -8 20 -4 4 3 7 2 7 -3 0 -5 19 -9 43 -10 60 -1 97 -32 145 -120
33 -60 37 -74 24 -75 -10 -1 12 -8 48 -15 171 -36 500 -7 637 56 122 56 261
217 315 363 11 31 23 56 25 53 2 -2 -8 -35 -23 -72 -75 -187 -190 -317 -354
-399 -19 -10 -56 -32 -82 -51 -57 -40 -120 -73 -173 -90 -34 -11 -36 -13 -13
-13 15 -1 29 -5 33 -10 3 -5 36 -16 73 -25 96 -22 362 -114 332 -116 -3 0 -30
7 -60 15 -85 23 -70 9 22 -19 46 -14 123 -48 172 -76 92 -52 200 -129 192
-138 -3 -2 -22 9 -43 25 -21 16 -54 39 -74 51 -37 22 -256 122 -268 122 -3 0
19 -16 49 -35 30 -19 61 -33 68 -30 7 3 10 1 7 -5 -3 -5 27 -28 67 -51 175
-103 286 -217 373 -384 47 -89 45 -116 -2 -36 -38 64 -160 214 -195 239 -10 8
-31 26 -45 40 -15 15 -21 18 -13 7 7 -11 -5 0 -27 25 -69 76 -55 41 29 -75 44
-60 97 -139 119 -175 38 -65 92 -180 85 -180 -3 0 -33 50 -68 111 -35 62 -92
146 -128 187 l-65 75 -75 2 c-41 1 -120 5 -175 9 -82 6 -113 3 -175 -12 -52
-14 -66 -20 -45 -21 53 -2 80 -55 31 -57 -16 -1 -23 3 -20 11 3 8 -10 14 -42
19 -85 11 -114 7 -150 -20 -33 -26 -34 -28 -17 -46 9 -11 54 -41 99 -69 79
-47 156 -116 274 -244 81 -88 109 -123 85 -105 -11 8 -30 28 -43 43 -14 15
-26 26 -28 24 -9 -9 90 -158 147 -223 106 -119 184 -250 225 -376 20 -60 34
-74 34 -35 1 21 1 21 14 4 9 -12 16 -14 21 -8 3 6 1 11 -4 11 -6 0 -11 9 -11
21 0 11 4 17 10 14 6 -4 7 1 3 11 -5 14 -2 16 15 12 12 -4 25 -1 29 4 3 6 1 8
-5 4 -17 -10 -20 17 -6 45 7 15 11 29 8 32 -3 3 4 10 15 17 12 6 19 16 15 21
-8 14 16 60 28 53 4 -3 8 -13 8 -23 0 -10 9 -21 20 -24 14 -4 20 -13 20 -34
l-1 -28 -15 28 c-8 15 -19 25 -24 22 -5 -3 -12 4 -15 16 -4 11 -9 18 -12 16
-2 -3 1 -15 7 -27 9 -16 9 -25 -1 -36 -9 -11 -9 -14 2 -15 8 0 5 -4 -6 -10
-16 -7 -13 -8 12 -5 25 4 31 2 26 -9 -3 -8 -9 -15 -14 -15 -5 0 -9 -8 -9 -17
0 -14 2 -15 9 -5 6 10 10 8 15 -10 4 -15 9 -19 13 -12 5 7 17 13 28 14 42 5
47 1 41 -26 -5 -17 -3 -24 4 -19 6 4 11 1 9 -6 -3 -26 1 -40 10 -35 5 3 7 15
4 26 -4 15 -1 18 16 15 11 -2 23 0 26 6 4 5 1 9 -4 9 -6 0 -11 6 -11 13 0 17
38 16 45 -1 3 -8 0 -10 -7 -6 -8 5 -9 2 -5 -9 3 -10 2 -17 -4 -17 -5 0 -9 -8
-7 -17 2 -11 -2 -17 -10 -15 -8 1 -11 -1 -8 -6 7 -12 -56 -181 -93 -248 -65
-115 -116 -191 -138 -201 -20 -10 -21 -8 -21 49 1 32 -2 61 -6 65 -3 3 -23 9
-43 13 -22 3 -37 11 -36 18 2 7 -2 12 -7 12 -14 0 -12 27 3 34 9 5 9 7 -1 12
-6 3 -9 11 -6 16 4 6 8 21 10 32 2 12 6 32 9 46 33 134 -63 375 -218 545 l-46
50 45 -109 c78 -192 155 -455 153 -526 -1 -34 -1 -34 -11 10 -47 224 -162 543
-231 644 -38 57 -144 127 -111 75 4 -7 9 -24 10 -37 3 -23 2 -23 -11 -6 -8 11
-9 21 -4 25 6 3 3 11 -6 19 -11 9 -13 15 -5 20 8 5 -1 15 -23 29 -19 12 -41
29 -48 38 -17 19 59 -17 106 -51 55 -41 57 -38 18 24 -58 93 -219 243 -346
320 -59 36 -107 68 -107 72 0 4 41 36 91 72 129 92 216 121 369 121 95 0 127
-4 183 -24 71 -24 89 -23 67 5 -58 69 -339 183 -502 202 -43 6 -161 5 -282 0
-140 -6 -212 -6 -219 1 -7 7 -1 14 19 21 16 6 52 19 79 30 28 10 57 21 65 24
8 3 -37 3 -100 1 -70 -2 -97 -1 -70 4 l45 7 -65 9 c-55 7 -61 9 -40 17 23 9
194 5 285 -7 41 -5 -35 13 -249 59 -66 15 -122 29 -125 32 -3 3 0 9 7 13 8 5
-2 12 -30 21 -24 7 -47 17 -53 22 -5 4 -18 8 -29 8 -10 0 -16 3 -13 7 4 3 -23
16 -59 29 -76 25 -111 51 -54 40 56 -11 100 -15 100 -7 0 3 -27 21 -60 39 -33
19 -58 38 -55 43 4 5 -3 9 -15 9 -12 0 -19 3 -17 8 3 4 -29 39 -70 77 -41 39
-98 97 -126 130 l-52 60 72 -66 c71 -65 167 -120 231 -134 40 -8 40 -6 5 110
-22 75 -27 110 -27 210 l-1 120 46 65 c26 36 61 93 78 128 17 34 46 79 64 100
48 54 77 93 77 104 0 19 -46 -6 -84 -46 -30 -31 -35 -34 -22 -12 62 99 87 153
119 251 20 61 39 126 42 145 4 19 9 44 12 54 4 13 -18 0 -61 -38 -67 -59 -85
-63 -44 -10 12 16 25 31 28 34 45 41 74 101 84 176 2 16 7 38 11 49 10 26 0
15 -59 -63 -27 -35 -50 -61 -53 -59 -2 3 16 35 41 71 25 36 52 88 60 116 17
59 31 155 17 125 -5 -11 -24 -38 -42 -59 -91 -105 -92 -105 -33 9 31 61 62
115 69 120 6 6 15 19 20 30 14 34 25 -49 19 -140z m-1190 110 c-101 -37 -149
-59 -179 -84 -11 -9 -8 -3 6 14 15 17 32 41 39 53 6 13 14 21 18 18 3 -4 0
-12 -6 -18 -22 -22 -12 -27 20 -11 44 22 160 63 178 62 8 0 -26 -15 -76 -34z
m6926 -17 c8 -24 17 -48 21 -53 4 -6 15 -41 24 -77 10 -37 21 -66 27 -65 16 4
59 -84 65 -134 3 -27 3 -49 -1 -49 -7 0 -52 94 -70 145 -6 16 -9 17 -16 5 -11
-17 -11 -17 -39 44 -23 51 -46 160 -36 176 3 5 1 11 -4 15 -11 6 -4 35 8 35 5
0 14 -19 21 -42z m-6600 -8 c0 -5 -5 -10 -11 -10 -5 0 -7 5 -4 10 3 6 8 10 11
10 2 0 4 -4 4 -10z m-39 -14 c-6 -8 -25 -19 -41 -26 -17 -7 -30 -15 -30 -19 0
-4 -14 -15 -32 -26 -29 -16 -30 -19 -12 -25 14 -5 10 -8 -20 -12 l-38 -4 33
28 c60 51 122 92 148 97 2 1 -2 -5 -8 -13z m98 -122 c3 -4 -5 -4 -19 0 -14 4
-59 10 -100 13 -51 5 -67 9 -50 13 26 6 158 -14 169 -26z m-3054 -4 c-10 -11
-20 -18 -23 -15 -7 6 18 35 31 35 5 0 2 -9 -8 -20z m3112 -16 c-6 -6 -47 9
-47 17 0 5 11 3 25 -3 14 -6 24 -13 22 -14z m38 -4 c3 -5 2 -10 -4 -10 -5 0
-13 5 -16 10 -3 6 -2 10 4 10 5 0 13 -4 16 -10z m-78 -60 c-92 -31 -152 -59
-129 -60 7 0 22 5 32 10 19 10 55 -2 71 -23 3 -5 10 -9 15 -10 5 -1 8 -5 7 -9
-5 -15 15 -8 20 6 4 9 -1 17 -11 19 -11 3 -7 6 11 7 37 3 40 4 55 13 7 5 10
12 8 16 -6 8 94 55 101 47 7 -7 -56 -64 -78 -71 -11 -4 -17 -10 -14 -15 3 -5
-1 -14 -8 -22 -8 -7 -13 -21 -11 -31 1 -9 -2 -17 -8 -17 -6 0 -7 -7 -4 -16 3
-8 2 -12 -4 -9 -6 3 -10 1 -10 -4 0 -6 7 -11 16 -11 8 0 13 -4 10 -8 -3 -5 4
-8 14 -8 11 1 19 -3 20 -9 0 -5 -4 -10 -10 -9 -5 1 -24 2 -41 3 -21 1 -28 5
-23 13 10 17 11 58 2 64 -5 3 -11 -3 -15 -13 -3 -10 -12 -22 -20 -26 -7 -4
-13 -12 -13 -16 0 -13 51 -36 76 -35 20 1 21 1 4 -3 -21 -4 -20 -5 5 -29 31
-28 32 -29 32 -9 0 8 -4 15 -9 15 -5 0 -6 5 -3 10 5 8 11 7 21 -1 8 -7 11 -15
7 -18 -16 -12 -7 -37 29 -76 67 -71 30 -50 -44 26 -83 85 -173 137 -307 179
l-83 26 98 44 c142 63 215 89 249 89 20 0 0 -10 -58 -29z m46 -6 c7 -8 -15
-44 -27 -44 -4 0 -3 6 4 14 9 12 8 15 -9 13 -13 -1 -20 -6 -17 -14 8 -21 -16
-27 -31 -7 -12 16 -11 19 8 26 11 5 25 6 30 2 5 -3 9 0 9 5 0 12 23 15 33 5z
m428 -91 c-29 -54 -212 -215 -227 -200 -2 2 19 24 48 48 28 24 81 72 117 106
37 34 67 63 69 63 1 0 -2 -8 -7 -17z m-454 -89 c-3 -3 -12 -4 -19 -1 -8 3 -5
6 6 6 11 1 17 -2 13 -5z m143 -108 c0 -3 -4 -8 -10 -11 -5 -3 -10 -1 -10 4 0
6 5 11 10 11 6 0 10 -2 10 -4z m4371 -57 c19 -9 19 -12 5 -22 -14 -10 -12 -12
11 -14 71 -4 125 -17 131 -31 3 -9 0 -18 -6 -20 -7 -2 -12 -10 -12 -18 0 -25
-46 -15 -81 19 -52 49 -84 63 -115 49 -14 -7 -23 -8 -19 -2 3 5 0 10 -7 10 -7
0 -2 7 10 16 12 8 26 13 31 9 5 -3 12 -1 16 5 8 13 12 13 36 -1z m-4450 -19
c77 -24 112 -44 59 -35 -34 7 -35 6 -12 -10 12 -9 22 -22 21 -28 0 -9 -2 -9
-6 1 -6 15 -33 16 -33 1 0 -5 4 -8 9 -5 4 3 16 -3 26 -14 21 -23 43 -25 80 -8
21 9 28 9 34 -1 6 -9 11 -10 15 -2 4 6 2 11 -3 11 -6 0 -11 5 -11 10 0 6 5 10
11 10 6 0 23 9 39 20 15 11 30 17 34 13 12 -12 6 -28 -15 -41 -15 -10 -19 -10
-14 -1 5 7 3 10 -5 7 -7 -2 -14 -12 -16 -22 -1 -10 -12 -24 -23 -32 -11 -8
-27 -21 -35 -29 -8 -8 -17 -15 -20 -15 -10 0 -65 -58 -59 -63 2 -3 25 10 50
29 55 42 123 78 123 65 0 -5 -42 -47 -92 -92 -66 -60 -92 -89 -90 -104 1 -14
0 -16 -6 -7 -13 19 -30 -5 -34 -47 -3 -34 -3 -34 -22 -16 -18 19 -19 19 -12
-3 6 -18 4 -21 -11 -15 -16 6 -16 5 -4 -10 8 -11 9 -17 3 -17 -6 0 -27 24 -46
53 -43 69 -72 91 -154 118 -72 24 -186 79 -178 86 2 3 30 -1 61 -8 42 -9 58
-10 67 -1 9 9 9 12 -2 14 -8 1 14 4 50 7 l65 6 -45 26 c-46 28 -87 66 -78 74
3 4 142 -42 213 -71 20 -8 20 -8 1 21 -10 17 -29 41 -42 56 -30 31 -30 35 -2
42 12 4 19 9 16 12 -3 4 -15 2 -25 -3 -14 -8 -25 -5 -46 14 l-28 24 64 0 c37
0 92 -9 128 -20z m-5043 -15 c-3 -3 -9 2 -12 12 -6 14 -5 15 5 6 7 -7 10 -15
7 -18z m5362 15 c0 -5 -5 -10 -11 -10 -5 0 -8 -4 -5 -8 2 -4 -4 -8 -14 -8 -18
0 -18 2 -3 18 18 20 33 23 33 8z m4403 -52 c7 -21 -12 -48 -34 -48 -22 0 -34
22 -25 45 7 18 53 20 59 3z m-4360 -43 c-3 -9 -8 -14 -10 -11 -3 3 -2 9 2 15
9 16 15 13 8 -4z m-83 -25 c0 -5 -4 -10 -10 -10 -5 0 -10 5 -10 10 0 6 5 10
10 10 6 0 10 -4 10 -10z m-5389 -37 c38 -61 42 -69 19 -43 -22 27 -53 80 -46
80 2 0 15 -17 27 -37z m5452 22 c-3 -9 -8 -14 -10 -11 -3 3 -2 9 2 15 9 16 15
13 8 -4z m-33 -55 c-12 -17 -25 -28 -29 -25 -9 5 -202 -190 -200 -202 1 -4 0
-26 -1 -48 l-3 -40 -6 45 c-4 25 -3 50 1 56 5 7 2 14 -7 18 -8 3 -15 13 -15
21 0 9 5 13 10 10 6 -3 13 1 16 10 4 10 14 15 25 12 10 -3 17 0 16 6 -1 6 8
15 19 22 12 6 28 16 36 23 8 6 18 9 21 5 4 -3 7 1 7 10 0 17 79 87 99 87 6 0
11 5 11 10 0 6 5 10 11 10 6 0 1 -14 -11 -30z m-5346 -96 c3 -8 2 -12 -4 -9
-6 3 -10 10 -10 16 0 14 7 11 14 -7z m6600 -30 c24 -23 20 -59 -9 -78 -30 -20
-40 -20 -59 0 -32 32 -10 94 34 94 10 0 26 -7 34 -16z m-6564 -20 c0 -2 -9 0
-20 6 -11 6 -20 13 -20 16 0 2 9 0 20 -6 11 -6 20 -13 20 -16z m-323 -20 c-3
-3 -12 -4 -19 -1 -8 3 -5 6 6 6 11 1 17 -2 13 -5z m133 -69 c19 -19 32 -35 29
-35 -3 0 -20 16 -39 35 -19 19 -32 35 -29 35 3 0 20 -16 39 -35z m9253 -8 c13
-41 -13 -77 -58 -77 -25 0 -37 6 -45 21 -24 44 13 91 69 86 17 -1 27 -11 34
-30z m-4020 -19 c3 -10 4 -18 3 -18 -2 0 -10 8 -19 18 -14 15 -14 19 -3 19 8
0 17 -9 19 -19z m-5151 -59 c24 -22 67 -54 96 -71 61 -35 64 -49 4 -19 -39 20
-165 130 -150 131 5 0 27 -18 50 -41z m6333 21 c8 -27 -12 -52 -39 -48 -21 3
-32 28 -22 54 8 22 54 18 61 -6z m-1148 -54 c3 -17 1 -18 -7 -6 -6 8 -18 29
-27 45 l-15 30 23 -24 c13 -14 25 -34 26 -45z m-5373 -120 c77 -37 107 -44
146 -37 15 3 -29 21 -52 21 -15 0 -29 4 -33 9 -3 5 -18 12 -34 16 -16 3 -32
12 -35 20 -6 16 7 14 74 -11 30 -11 67 -15 113 -12 65 4 87 -4 47 -17 -11 -3
-60 -35 -109 -71 -97 -69 -128 -82 -79 -34 24 25 28 33 18 45 -7 8 -16 13 -20
10 -4 -2 -16 4 -27 15 -12 10 -24 16 -27 13 -3 -4 -6 0 -6 7 0 7 -3 11 -6 7
-3 -3 -15 3 -27 13 -12 11 -31 26 -42 34 -38 29 6 16 99 -28z m7085 -25 c-7
-23 -14 -39 -16 -37 -3 2 1 23 8 45 7 23 14 39 16 37 3 -2 -1 -23 -8 -45z
m-1323 11 c-15 -28 -46 -61 -46 -48 0 8 50 76 56 76 3 0 -2 -13 -10 -28z
m-5723 -81 c-3 -11 -11 -22 -19 -25 -17 -6 -17 -1 -4 25 14 25 30 25 23 0z
m303 -42 l61 -1 -33 -90 c-17 -49 -39 -97 -48 -107 -31 -34 -16 -35 19 -1 19
18 37 31 40 28 3 -3 -6 -36 -20 -74 -44 -116 -86 -245 -96 -298 -5 -28 -13
-54 -18 -59 -5 -5 -4 15 1 44 7 36 6 60 -1 77 -6 13 -8 28 -5 34 5 7 2 8 -5 3
-9 -5 -12 -1 -11 11 4 39 1 47 -15 34 -19 -16 -35 -4 -35 25 0 13 -4 26 -9 29
-5 3 -7 16 -4 29 4 18 3 19 -6 7 -8 -11 -11 -12 -11 -2 0 8 -5 10 -12 6 -8 -5
-9 -2 -5 9 3 9 1 19 -5 23 -7 4 -8 3 -4 -4 4 -7 1 -12 -8 -12 -8 0 -20 9 -26
20 -9 16 -8 19 7 14 17 -5 17 -5 0 6 -9 6 -22 8 -27 5 -6 -3 -10 1 -10 10 0
14 -31 32 -71 40 -38 8 -111 59 -101 70 4 5 2 5 -5 1 -13 -7 -83 23 -83 36 0
4 -11 8 -25 8 -14 0 -25 5 -25 10 0 6 -10 15 -22 21 -20 8 -20 9 7 4 78 -13
165 -35 213 -54 l54 -21 33 29 c18 16 39 31 47 34 10 4 11 7 1 18 -10 10 -13
10 -13 0 0 -7 -4 -9 -10 -6 -5 3 -10 1 -10 -5 0 -6 -5 -8 -11 -4 -35 21 115
65 196 58 28 -3 77 -5 111 -5z m-193 -339 c3 -11 4 -20 3 -20 -2 0 -11 9 -21
20 -15 17 -16 20 -3 20 9 0 18 -9 21 -20z m8717 -75 c-16 -19 -27 -19 -27 0 0
9 6 14 14 11 7 -3 13 0 13 6 0 6 3 8 6 5 4 -4 1 -13 -6 -22z m-9029 -288 c-10
-9 -11 -8 -5 6 3 10 9 15 12 12 3 -3 0 -11 -7 -18z m4437 -46 c23 -7 42 -16
42 -21 0 -6 4 -10 9 -10 15 0 101 -60 101 -71 0 -5 6 -9 13 -9 13 0 43 -40 39
-53 -1 -4 5 -10 13 -13 8 -4 15 -15 15 -26 0 -10 7 -32 15 -48 8 -16 13 -43
10 -62 -4 -30 -4 -31 5 -8 8 20 9 16 4 -20 -6 -52 6 -47 17 7 l8 38 -4 -35
c-5 -52 -37 -136 -97 -251 -145 -282 -432 -431 -826 -428 -100 0 -243 14 -189
18 14 1 7 10 -25 34 -23 18 -47 46 -53 62 -5 17 -14 33 -18 36 -14 10 -9 130
8 193 8 32 29 87 45 122 16 34 36 84 45 111 16 50 19 57 55 135 20 45 43 73
83 101 10 7 22 29 27 47 7 33 8 32 10 -20 1 -30 5 -66 9 -79 6 -21 8 -22 20
-7 15 18 52 21 67 6 6 -6 8 -24 6 -40 -4 -25 -11 -32 -47 -43 l-43 -12 33 -71
c40 -88 122 -217 192 -302 29 -35 53 -69 53 -75 0 -6 2 -8 5 -5 17 17 -53 467
-84 548 -10 25 -30 83 -44 130 -24 77 -24 83 -7 61 11 -13 20 -19 20 -14 0 9
69 39 82 35 3 -1 12 5 18 13 7 8 21 15 32 15 11 0 29 5 41 12 12 7 34 11 50 9
15 -1 27 2 27 9 0 7 12 9 34 4 19 -3 42 -1 52 4 13 7 29 6 54 -3 19 -7 54 -18
78 -24z m3900 -3 c19 -19 14 -48 -10 -57 -33 -12 -48 -3 -48 29 0 26 6 32 41
39 3 0 10 -4 17 -11z m-1138 -114 c0 -2 -9 0 -20 6 -11 6 -20 13 -20 16 0 2 9
0 20 -6 11 -6 20 -13 20 -16z m-5805 -182 c-3 -3 -11 0 -18 7 -9 10 -8 11 6 5
10 -3 15 -9 12 -12z m5405 -2 c0 -5 -2 -10 -4 -10 -3 0 -8 5 -11 10 -3 6 -1
10 4 10 6 0 11 -4 11 -10z m-156 -55 c25 -19 9 -19 -24 0 -14 8 -19 14 -10 14
8 0 24 -6 34 -14z m96 -66 c3 -3 15 -11 28 -18 12 -7 20 -16 17 -21 -3 -5 -1
-11 5 -15 15 -9 12 -42 -5 -49 -18 -7 -58 31 -76 73 -8 17 -17 31 -21 31 -5 0
-8 7 -8 15 0 8 -5 15 -11 15 -5 0 -7 4 -4 10 5 8 58 -20 75 -41z m1470 -189
c0 -42 -27 -99 -63 -131 -17 -16 -35 -29 -40 -29 -12 0 -32 22 -40 44 -16 43
63 189 93 171 5 -3 10 0 10 7 1 26 40 -35 40 -62z m-6793 -20 l-6 -50 43 0
c50 0 78 -23 66 -55 -13 -35 -37 -47 -80 -43 l-41 4 7 -51 c17 -124 77 -311
140 -435 l43 -85 1 40 c0 22 12 117 26 210 13 94 24 189 22 212 -1 23 1 45 4
49 4 3 5 23 2 45 l-5 39 47 -25 c25 -13 67 -48 93 -77 25 -29 58 -65 74 -81
15 -16 27 -33 27 -38 0 -5 7 -9 15 -9 8 0 15 -4 15 -9 0 -5 8 -11 18 -13 38
-10 78 -226 53 -291 -12 -30 -125 -109 -228 -158 -85 -40 -207 -63 -308 -56
-86 5 -205 34 -205 49 0 5 -10 7 -22 4 -13 -3 -17 -3 -10 0 10 5 9 10 -5 21
-17 14 -17 14 0 9 11 -4 16 -2 12 5 -4 5 -15 7 -26 4 -13 -4 -19 -2 -19 8 0 9
-14 27 -31 41 -17 14 -27 26 -23 26 4 0 -1 9 -11 20 -10 11 -22 17 -28 13 -6
-3 -7 -1 -3 5 8 13 -8 46 -35 76 -11 11 -19 26 -19 33 0 8 -4 12 -9 9 -5 -3
-14 15 -21 39 -7 25 -17 48 -21 51 -5 3 -9 18 -9 33 0 15 -4 31 -10 37 -21 21
-4 174 20 174 5 0 12 9 15 20 3 11 13 27 22 35 13 14 20 31 22 58 1 5 6 5 11
2 9 -6 14 8 11 28 0 4 3 6 7 5 5 -2 24 13 43 33 46 49 111 70 221 70 48 0 88
4 88 10 0 5 3 9 6 9 4 0 4 -22 1 -50z m5330 -2 c36 -33 85 -102 89 -125 4 -25
-16 -12 -78 47 -35 33 -54 57 -43 53 17 -6 18 -5 7 10 -8 8 -19 15 -25 13 -7
-1 -8 -1 -4 2 4 2 3 10 -4 18 -24 29 21 14 58 -18z m-89 -20 c42 -30 126 -111
107 -104 -17 6 -16 3 6 -21 15 -15 38 -50 52 -78 27 -57 75 -196 80 -237 1
-15 7 -31 11 -35 8 -8 4 62 -8 136 -11 70 13 13 34 -82 20 -87 22 -117 17
-245 -6 -174 -20 -233 -31 -130 -9 94 -79 369 -116 458 -42 101 -80 168 -155
271 -56 76 -60 86 -39 83 12 -1 31 -8 42 -16z m-6249 -149 c1 -132 -25 -248
-67 -294 -16 -16 -52 -60 -80 -97 -29 -36 -77 -89 -108 -117 -89 -82 -62 -69
101 47 61 44 67 36 9 -12 -50 -42 -476 -271 -626 -336 -51 -23 -101 -45 -110
-50 -46 -25 -291 4 -378 44 -19 9 -27 14 -17 11 107 -29 303 -63 312 -53 3 3
-18 9 -47 14 l-53 8 85 6 c53 4 98 13 120 24 72 38 274 158 333 198 79 52 216
161 217 171 0 4 -12 7 -27 7 -33 0 -195 31 -190 36 2 2 48 -3 103 -11 157 -24
142 -29 229 86 123 163 173 284 176 424 2 101 16 16 18 -106z m471 -145 c6
-15 10 -55 9 -88 -1 -34 4 -73 10 -88 6 -18 7 -28 1 -28 -9 0 -12 8 -9 26 0 4
-4 10 -10 13 -15 9 -51 155 -51 204 l0 40 20 -25 c11 -14 24 -38 30 -54z
m-1479 19 c13 -16 12 -17 -3 -4 -10 7 -18 15 -18 17 0 8 8 3 21 -13z m4622
-120 c-7 -2 -19 -2 -25 0 -7 3 -2 5 12 5 14 0 19 -2 13 -5z m-364 -8 c-3 -2
-19 -5 -37 -7 -18 -1 -32 -6 -32 -10 0 -4 -16 -8 -35 -8 -42 0 -46 -15 -7 -25
25 -7 25 -8 7 -15 -11 -4 -54 -8 -95 -10 -41 -1 -92 -3 -112 -5 -21 -1 -38 2
-38 7 0 5 -10 6 -21 3 -15 -5 -20 -3 -17 6 3 8 13 15 24 17 10 1 37 5 59 8 22
3 49 9 60 14 43 20 93 28 169 29 44 1 77 -1 75 -4z m299 -2 c-10 -2 -26 -2
-35 0 -10 3 -2 5 17 5 19 0 27 -2 18 -5z m-685 -44 c-8 -8 -13 -8 -17 0 -4 6
-2 11 4 11 6 0 8 6 4 13 -6 10 -4 10 7 0 9 -10 10 -16 2 -24z m4277 0 c0 -5
-4 -9 -10 -9 -5 0 -10 7 -10 16 0 8 5 12 10 9 6 -3 10 -10 10 -16z m-1082 -43
c90 -45 171 -113 247 -209 74 -93 110 -173 120 -272 9 -90 0 -82 -14 13 -19
125 -84 227 -201 317 -32 25 -60 45 -62 45 -3 0 -42 25 -88 55 -80 53 -99 69
-49 42 13 -6 47 -28 74 -47 49 -34 92 -50 80 -30 -3 5 -10 10 -15 10 -5 0 -22
12 -37 26 -36 34 -128 78 -148 71 -8 -4 -17 -2 -20 3 -13 22 49 8 113 -24z
m1060 3 c-3 -8 -7 -3 -11 10 -4 17 -3 21 5 13 5 -5 8 -16 6 -23z m-7813 11 c3
-6 -1 -7 -9 -4 -18 7 -21 14 -7 14 6 0 13 -4 16 -10z m125 -47 c30 -11 31 -12
6 -8 -16 4 -43 13 -60 20 -23 11 -25 13 -6 8 14 -3 41 -12 60 -20z m1084 2 c3
-8 1 -15 -3 -15 -5 0 -11 7 -15 15 -3 8 -1 15 3 15 5 0 11 -7 15 -15z m2714
-6 c26 -6 52 -18 58 -26 7 -7 16 -13 20 -12 15 4 64 -20 64 -30 0 -5 -9 -7
-20 -4 -11 3 -20 0 -20 -6 0 -6 9 -11 20 -11 11 0 20 -5 20 -11 0 -5 4 -8 9
-4 5 3 12 1 15 -4 11 -18 67 -20 148 -6 125 22 137 17 18 -9 -58 -12 -111 -25
-117 -29 -7 -5 -13 -4 -13 2 0 6 -7 11 -15 11 -21 0 -19 -18 3 -22 9 -2 49 2
87 9 96 18 112 15 40 -7 -33 -10 -52 -19 -42 -19 9 -1 17 -5 17 -11 0 -5 7 -7
16 -3 13 5 13 7 2 14 -10 7 -9 9 5 9 9 0 17 -5 17 -10 0 -6 3 -9 8 -9 19 3 30
-2 36 -17 4 -12 2 -15 -9 -10 -8 3 -15 1 -15 -3 0 -5 15 -9 34 -8 19 0 33 4
30 8 -2 4 0 10 5 13 5 4 8 -19 7 -53 -3 -49 0 -58 12 -54 12 5 13 -1 9 -28 -3
-19 -8 -43 -10 -54 -3 -11 -6 -24 -6 -28 -1 -5 -5 -6 -10 -3 -4 3 -21 -8 -37
-24 -16 -16 -34 -30 -41 -30 -16 0 -44 -30 -38 -40 3 -5 -5 -12 -17 -15 -46
-14 -98 -39 -98 -48 0 -5 -7 -7 -15 -3 -8 3 -15 2 -15 -3 0 -5 -21 -14 -47
-21 -27 -7 -52 -16 -58 -19 -5 -3 -14 -6 -20 -7 -19 -4 -60 -13 -85 -19 -14
-4 -56 -12 -95 -19 -38 -7 -80 -17 -91 -24 -12 -6 -24 -8 -28 -5 -3 3 -6 1 -6
-5 0 -6 -8 -11 -17 -10 -10 0 -49 -4 -88 -8 -58 -7 -65 -9 -40 -15 30 -7 30
-7 3 -8 -15 0 -29 3 -32 7 -6 11 -64 3 -72 -9 -3 -5 -13 -9 -22 -9 -11 0 -13
3 -5 8 6 4 -32 8 -85 9 -105 1 -205 18 -239 40 -13 9 -24 10 -27 4 -3 -5 -15
-7 -27 -4 -15 4 -17 9 -9 17 8 8 14 7 21 -4 8 -11 9 -9 4 9 -6 19 -4 23 7 18
8 -3 15 0 15 6 0 23 73 135 102 159 131 105 166 138 209 201 28 40 55 91 61
115 7 23 16 42 22 42 6 0 7 -6 3 -12 -6 -10 -4 -10 7 -2 8 6 23 10 34 8 10 -1
25 2 33 8 10 9 15 9 20 1 7 -11 87 -11 98 0 3 3 17 2 31 -2 22 -6 50 -4 150
11 6 1 -2 15 -19 31 -22 23 -26 32 -16 38 11 7 10 11 -2 19 -9 6 -10 10 -3 10
6 0 15 9 18 20 7 24 57 27 133 9z m8522 -28 c0 -23 -9 -31 -26 -24 -17 6 -18
25 -2 41 14 14 28 6 28 -17z m-11127 -119 c29 -30 71 -65 95 -79 52 -31 56
-42 4 -13 -70 39 -202 178 -202 212 0 6 12 -7 26 -28 14 -21 49 -63 77 -92z
m1097 57 c0 -6 -4 -7 -10 -4 -5 3 -10 11 -10 16 0 6 5 7 10 4 6 -3 10 -11 10
-16z m1705 -3 c6 3 18 -2 25 -11 12 -15 10 -15 -16 -9 -38 9 -44 13 -44 27 0
8 3 8 11 0 6 -6 17 -9 24 -7z m3710 -16 c3 0 3 5 0 10 -3 6 1 10 11 10 13 0
14 -3 4 -15 -16 -19 -21 -19 -46 1 -18 15 -18 15 3 5 12 -6 24 -11 28 -11z
m-1150 -28 c60 -30 127 -86 163 -136 62 -87 66 -104 10 -41 -79 89 -132 136
-196 173 -55 32 -38 35 23 4z m-2342 1 c-7 -2 -19 -2 -25 0 -7 3 -2 5 12 5 14
0 19 -2 13 -5z m-940 -28 c-3 -9 -8 -14 -10 -11 -3 3 -2 9 2 15 9 16 15 13 8
-4z m-1094 1 c-10 -9 -69 -36 -69 -32 0 7 52 35 64 36 5 0 7 -2 5 -4z m4565
-5 c4 -5 -3 -7 -14 -4 -23 6 -26 13 -6 13 8 0 17 -4 20 -9z m-3794 -8 c-14 -2
-54 -13 -89 -24 -35 -11 -66 -17 -68 -15 -8 7 121 45 152 44 26 -1 27 -1 5 -5z
m-2635 -69 c-78 -72 -167 -137 -193 -140 -9 -1 -57 -18 -106 -38 -49 -20 -91
-34 -93 -32 -2 2 42 23 98 47 69 28 119 58 153 88 46 41 194 142 206 141 3 -1
-26 -30 -65 -66z m2319 40 c21 -8 20 -21 -1 -27 -10 -3 2 -6 27 -7 44 -2 44
-2 13 -10 -18 -4 -39 -12 -45 -17 -7 -6 -44 -13 -83 -15 -40 -3 -61 -2 -50 3
11 4 32 8 47 8 23 1 42 15 43 31 0 5 27 39 32 40 1 0 8 -3 17 -6z m131 -24
c-11 -5 -29 -8 -40 -8 -16 0 -15 2 5 8 34 11 60 11 35 0z m5319 -64 c13 -29
30 -72 36 -95 9 -34 15 -41 35 -41 14 0 25 -4 25 -9 0 -5 9 -13 21 -16 17 -6
18 -9 7 -23 -10 -12 -10 -14 0 -8 20 12 15 -31 -6 -46 -10 -7 -21 -21 -25 -32
-4 -10 -13 -16 -22 -13 -9 4 -12 1 -8 -9 3 -7 0 -14 -7 -14 -7 0 -19 -8 -27
-17 -10 -13 -16 -14 -19 -6 -3 7 -12 9 -20 6 -15 -5 -16 1 -16 55 0 17 -5 33
-11 33 -12 1 -18 1 -52 -8 -11 -2 -41 -7 -67 -10 -27 -3 -48 -9 -48 -13 0 -4
-6 -10 -14 -13 -12 -5 -13 4 -9 46 11 114 33 166 100 239 34 35 53 48 74 48
25 0 32 -7 53 -54z m-5239 -6 c-10 -12 -24 -19 -31 -16 -7 3 -15 0 -18 -7 -3
-9 -7 -8 -14 2 -18 25 -2 41 41 41 40 0 40 0 22 -20z m-3744 -17 c13 -16 12
-17 -3 -4 -10 7 -18 15 -18 17 0 8 8 3 21 -13z m3141 -13 c6 0 8 -10 4 -25 -7
-26 -7 -26 113 -157 25 -28 67 -59 100 -74 31 -15 97 -46 146 -69 50 -24 111
-49 138 -55 26 -7 47 -14 47 -15 0 -1 7 -19 15 -39 15 -36 15 -37 -4 -27 -14
8 -22 7 -31 -4 -6 -8 -9 -18 -6 -23 6 -9 -30 -26 -48 -23 -5 1 -12 -2 -15 -6
-3 -4 -17 -14 -30 -21 -20 -12 -25 -12 -32 0 -7 10 -9 10 -9 1 0 -7 -9 -13
-19 -13 -11 0 -23 -4 -26 -10 -3 -5 -19 -10 -34 -10 -15 0 -32 -5 -37 -10 -6
-6 -25 -12 -43 -15 -18 -2 -39 -12 -46 -22 -11 -15 -27 -18 -99 -17 -47 0 -83
-2 -81 -6 7 -11 -57 -19 -74 -10 -7 4 -29 4 -47 0 -20 -5 -32 -4 -28 1 3 5 0
9 -5 9 -6 0 -11 -6 -12 -12 0 -10 -2 -10 -6 0 -2 6 -11 12 -18 12 -8 0 -19 9
-25 21 -7 11 -18 18 -25 15 -8 -3 -21 4 -28 14 -8 11 -17 17 -20 14 -4 -4 -13
-1 -22 6 -12 10 -18 10 -32 -1 -16 -13 -17 -12 -5 3 12 15 12 20 -3 34 -9 9
-14 23 -11 30 3 9 -1 14 -12 14 -13 1 -11 4 8 15 l25 14 -35 1 c-31 1 -33 2
-17 14 27 21 21 24 -35 15 -29 -5 -54 -6 -57 -4 -2 3 3 5 12 5 10 0 26 9 37
20 17 17 19 24 9 43 l-12 22 24 -20 24 -20 -24 27 c-13 15 -27 26 -30 23 -4
-2 -13 0 -21 6 -11 6 -3 9 25 10 22 0 60 4 85 9 33 7 15 8 -65 5 -60 -3 -177
-7 -260 -9 -130 -4 -119 -3 90 12 184 13 232 19 205 26 -30 8 -32 10 -12 13
12 3 20 8 17 13 -6 10 44 52 55 45 5 -3 12 0 16 6 4 7 3 9 -4 5 -6 -3 -13 -2
-17 4 -3 5 0 10 8 10 8 0 17 7 21 15 3 8 12 15 21 15 8 0 15 7 15 15 0 8 7 15
15 15 8 0 22 8 32 19 10 10 43 35 73 55 30 21 57 41 60 45 3 3 19 11 35 17 23
7 31 7 33 -3 2 -7 8 -13 14 -13z m-2977 -88 c-5 -6 -99 45 -125 67 -14 11 9 2
51 -22 42 -23 75 -43 74 -45z m8145 -100 c0 -31 -4 -62 -8 -69 -4 -6 -7 21 -7
62 0 40 3 71 8 68 4 -2 7 -30 7 -61z m-1179 11 c-25 -3 -31 -7 -21 -13 8 -5
12 -11 10 -14 -3 -2 -16 4 -29 15 l-23 19 48 -2 c40 -1 43 -2 15 -5z m-6202
-88 c-39 -47 -73 -85 -76 -85 -2 0 6 19 19 41 31 56 96 129 114 129 9 0 -16
-36 -57 -85z m6284 78 c-7 -2 -19 -2 -25 0 -7 3 -2 5 12 5 14 0 19 -2 13 -5z
m673 -65 c-7 -56 -25 -114 -26 -80 0 20 24 142 29 142 2 0 0 -28 -3 -62z
m1319 1 c-4 -5 -2 -9 4 -9 7 0 7 -8 -1 -25 -6 -13 -15 -22 -20 -19 -5 3 -20
-2 -34 -11 -14 -9 -28 -14 -31 -11 -3 3 2 8 11 12 9 3 14 10 11 14 -3 5 2 16
11 24 8 9 12 16 8 16 -4 0 1 6 11 14 21 15 40 12 30 -5z m29 5 c3 -8 2 -12 -4
-9 -6 3 -10 10 -10 16 0 14 7 11 14 -7z m-1709 -32 c-3 -3 -11 0 -18 7 -9 10
-8 11 6 5 10 -3 15 -9 12 -12z m123 -76 c19 -17 38 -40 44 -50 6 -11 -9 0 -33
23 -23 24 -60 54 -81 67 -21 13 -38 27 -38 30 0 10 73 -38 108 -70z m165 -6
c57 -190 79 -490 44 -590 l-16 -45 7 40 c4 22 6 101 5 175 -1 125 -23 272 -69
466 -11 50 11 13 29 -46z m5422 51 c3 -5 1 -12 -5 -16 -5 -3 -10 1 -10 9 0 18
6 21 15 7z m-5815 -46 c52 -20 100 -42 105 -47 6 -6 3 -7 -9 -2 -16 6 -17 5
-6 -15 17 -34 5 -37 -27 -6 -38 36 -104 65 -164 72 -57 7 -63 -5 -16 -32 42
-25 69 -52 95 -96 35 -58 26 -67 -20 -21 -59 57 -177 116 -276 137 -140 30
-80 56 118 50 95 -2 115 -6 200 -40z m-6577 -20 c-3 -9 -8 -14 -10 -11 -3 3
-2 9 2 15 9 16 15 13 8 -4z m6865 -96 c18 -18 40 -47 48 -63 14 -31 14 -31 -3
-6 -22 31 -92 101 -118 118 -11 7 -6 6 10 -2 17 -8 45 -29 63 -47z m-4979 16
c-8 -7 -251 -47 -256 -41 -5 5 74 22 162 35 75 11 100 12 94 6z m10413 -52
c25 -22 23 -45 -7 -77 -43 -46 -117 -27 -111 29 6 57 76 86 118 48z m-10902
-69 c0 -2 -21 -15 -47 -28 -27 -14 -63 -35 -80 -47 -18 -11 -33 -18 -33 -15 0
10 131 93 147 93 7 0 13 -2 13 -3z m15 -34 c3 -5 -1 -10 -10 -10 -9 0 -13 5
-10 10 3 6 8 10 10 10 2 0 7 -4 10 -10z m7072 -62 c-3 -8 -6 -5 -6 6 -1 11 2
17 5 13 3 -3 4 -12 1 -19z m-2797 -3 c0 -2 -15 -12 -32 -21 -18 -9 -51 -30
-73 -46 l-40 -30 35 32 c19 17 51 40 70 50 40 22 40 22 40 15z m-1831 -39 c-3
-3 -11 5 -18 17 -13 21 -12 21 5 5 10 -10 16 -20 13 -22z m4481 3 c0 -6 8 -8
19 -4 14 4 20 0 24 -22 6 -31 -1 -55 -14 -47 -5 3 -6 10 -3 16 5 7 2 9 -8 6
-16 -6 -53 44 -41 56 10 10 23 7 23 -5z m-5675 -107 c-3 -3 -11 0 -18 7 -9 10
-8 11 6 5 10 -3 15 -9 12 -12z m68 -19 c-7 -2 -19 -2 -25 0 -7 3 -2 5 12 5 14
0 19 -2 13 -5z m5186 -162 c12 -11 23 -23 23 -28 1 -19 11 -32 19 -27 5 3 9 0
9 -6 0 -6 8 -5 23 4 61 39 107 15 124 -65 l10 -47 -37 -20 c-24 -12 -43 -17
-51 -11 -8 5 -24 9 -36 9 -13 0 -23 5 -23 11 0 5 6 7 13 3 6 -4 4 2 -7 14 -10
12 -16 28 -13 36 3 8 -1 20 -9 26 -12 10 -14 8 -14 -15 0 -23 -3 -26 -22 -22
-12 3 -30 1 -40 -4 -11 -6 -27 -8 -36 -4 -9 3 -18 5 -19 3 -8 -10 -34 47 -35
74 -1 23 7 39 31 60 37 33 60 35 90 9z m-3899 -68 c-1 -5 -9 -42 -20 -83 l-19
-75 5 60 c7 76 14 105 25 105 5 0 9 -3 9 -7z m-43 -185 c-3 -8 -6 -5 -6 6 -1
11 2 17 5 13 3 -3 4 -12 1 -19z m8332 -72 c-5 -16 -6 -33 -2 -39 3 -6 1 -7 -5
-3 -5 3 -12 1 -14 -6 -3 -7 -5 12 -6 42 0 33 4 57 11 62 17 10 26 -21 16 -56z
m-8557 -28 c-16 -35 -32 -76 -36 -92 -4 -15 -10 -26 -13 -23 -7 8 25 111 50
162 32 64 31 22 -1 -47z m-2863 30 c-7 -13 -14 -18 -16 -11 -3 7 2 19 9 27 18
20 22 12 7 -16z m2904 -3 c-3 -9 -8 -14 -10 -11 -3 3 -2 9 2 15 9 16 15 13 8
-4z m-1959 -104 c4 -5 -3 -7 -14 -4 -23 6 -26 13 -6 13 8 0 17 -4 20 -9z m60
-26 c25 -19 9 -19 -24 0 -14 8 -19 14 -10 14 8 0 24 -6 34 -14z m1656 -51
c-41 -13 -84 -24 -95 -23 -11 0 3 6 30 14 28 7 61 18 75 24 14 5 34 10 45 9
11 0 -14 -11 -55 -24z m-430 2 c0 -3 -4 -8 -10 -11 -5 -3 -10 -1 -10 4 0 6 5
11 10 11 6 0 10 -2 10 -4z m265 -25 c28 -6 33 -9 15 -10 -19 -1 -22 -3 -10
-11 31 -19 3 -16 -50 6 -48 20 -51 23 -25 23 17 0 48 -4 70 -8z m-1245 -21
c18 -12 2 -12 -25 0 -13 6 -15 9 -5 9 8 0 22 -4 30 -9z m1797 -20 c-19 -16
-42 -30 -51 -30 -9 0 -25 -5 -36 -12 -10 -7 -23 -9 -27 -5 -8 9 17 28 28 21 4
-2 9 -1 11 4 6 13 72 52 91 52 13 0 9 -7 -16 -30z m-1747 0 c8 -5 11 -10 5
-10 -5 0 -17 5 -25 10 -8 5 -10 10 -5 10 6 0 17 -5 25 -10z m97 -36 c-3 -3
-12 -4 -19 -1 -8 3 -5 6 6 6 11 1 17 -2 13 -5z m48 -14 c13 -6 15 -9 5 -9 -8
0 -22 4 -30 9 -18 12 -2 12 25 0z m1467 -13 c9 -8 13 -18 9 -25 -10 -16 -109
-54 -121 -47 -5 3 -20 -1 -32 -9 -13 -8 -37 -17 -55 -21 -26 -5 -34 -2 -43 15
-6 12 -10 23 -8 25 3 3 219 73 228 74 3 0 13 -5 22 -12z m8393 -8 c-4 -6 0
-16 8 -22 19 -16 29 -47 15 -47 -7 0 -7 -4 1 -14 14 -16 -5 -27 -29 -17 -17 7
-25 31 -10 31 6 0 10 5 10 11 0 5 -4 8 -10 4 -12 -8 -8 48 5 57 14 11 17 10
10 -3z m233 -21 c-7 -19 -35 -21 -35 -3 0 8 9 15 20 15 10 0 17 -5 15 -12z
m-9457 -39 c-5 -13 -10 -19 -10 -12 -1 15 10 45 15 40 3 -2 0 -15 -5 -28z m49
-3 c0 -3 -4 -8 -10 -11 -5 -3 -10 -1 -10 4 0 6 5 11 10 11 6 0 10 -2 10 -4z
m525 -16 c20 -22 20 -23 -63 -39 -65 -13 -92 -14 -112 -1 -24 15 0 29 76 44
38 8 72 15 75 15 3 1 14 -8 24 -19z m-588 -32 c-3 -8 -6 -5 -6 6 -1 11 2 17 5
13 3 -3 4 -12 1 -19z m1187 -340 c-37 -51 -76 -102 -86 -114 -10 -11 -18 -28
-18 -37 0 -9 -4 -17 -8 -17 -5 0 -9 -6 -9 -12 0 -7 -16 -46 -35 -87 -28 -59
-35 -68 -34 -43 0 16 4 28 8 26 7 -5 21 30 23 60 1 10 9 24 18 31 9 7 14 14
12 17 -10 10 174 268 190 268 3 0 -25 -42 -61 -92z m-2820 46 c8 -31 -10 -59
-29 -44 -10 9 -12 27 -6 63 3 18 29 4 35 -19z m536 -15 c0 -5 4 -8 9 -4 16 9
32 -31 29 -72 -2 -40 -25 -65 -64 -70 -16 -3 -23 5 -32 36 -12 40 -7 75 9 65
5 -3 9 9 9 25 0 24 4 31 20 31 11 0 20 -5 20 -11z m1286 -34 c10 -8 14 -15 7
-15 -19 0 -43 11 -43 21 0 13 14 11 36 -6z m454 -81 c0 -16 -16 -19 -25 -4 -8
13 4 32 16 25 5 -4 9 -13 9 -21z m8634 -240 c9 -8 16 -24 16 -34 0 -19 -25
-50 -40 -50 -5 0 -16 7 -25 16 -16 16 -13 46 7 72 14 16 23 15 42 -4z m-346
-186 c0 -7 4 -39 8 -71 6 -51 5 -57 -10 -51 -11 4 -15 13 -10 26 4 15 3 18 -6
13 -10 -6 -11 2 -6 35 8 53 21 78 24 48z m-8608 -97 c0 -6 6 -11 13 -11 8 0
19 -11 25 -25 26 -56 3 -123 -38 -112 -11 3 -18 1 -14 -4 7 -12 1 -11 -30 4
-14 8 -23 17 -19 20 3 4 1 8 -5 8 -26 3 -31 4 -38 12 -4 4 -2 7 4 7 7 0 12 5
12 10 0 6 -7 10 -15 10 -9 0 -15 10 -15 26 0 34 19 67 35 60 7 -2 16 2 19 9 3
8 12 12 21 9 8 -3 15 -1 15 6 0 7 5 6 15 -4 8 -8 15 -19 15 -25z m2100 -32 c0
-18 -37 -28 -55 -15 -18 13 -18 14 0 23 19 11 55 6 55 -8z m7130 -188 c0 -24
-25 -34 -40 -16 -15 18 -5 35 21 35 12 0 19 -7 19 -19z m-9404 -39 c13 -12 30
-17 53 -14 76 8 123 -44 105 -116 -28 -112 -201 -50 -219 78 -4 27 -4 54 0 60
10 16 39 12 61 -8z m-2184 -122 c28 -35 23 -77 -13 -110 -39 -35 -80 -44 -124
-26 -77 32 -74 114 5 153 38 19 111 9 132 -17z m4268 -280 c0 -5 -4 -10 -10
-10 -5 0 -10 5 -10 10 0 6 5 10 10 10 6 0 10 -4 10 -10z m-2960 -30 c0 -5 -7
-7 -15 -4 -8 4 -15 8 -15 10 0 2 7 4 15 4 8 0 15 -4 15 -10z m9550 -74 c0 -3
-4 -8 -10 -11 -5 -3 -10 -1 -10 4 0 6 5 11 10 11 6 0 10 -2 10 -4z m-9921
-244 c17 -31 -17 -58 -51 -40 -18 9 -24 39 -11 51 13 14 53 7 62 -11z m745
-160 c12 -20 14 -63 3 -67 -32 -12 -67 -12 -81 -2 -14 11 -13 16 10 45 24 30
57 42 68 24z m2661 -92 c-3 -5 -10 -10 -16 -10 -5 0 -9 5 -9 10 0 6 7 10 16
10 8 0 12 -4 9 -10z m-3367 -102 c7 -7 12 -24 12 -39 0 -36 -37 -51 -57 -23
-14 19 -17 56 -6 67 10 11 38 8 51 -5z m2039 -215 c-3 -10 -5 -4 -5 12 0 17 2
24 5 18 2 -7 2 -21 0 -30z m1533 27 c0 -5 -5 -10 -11 -10 -5 0 -7 5 -4 10 3 6
8 10 11 10 2 0 4 -4 4 -10z"/>
<path d="M7018 6903 c-92 -97 -135 -182 -117 -228 4 -11 8 -14 8 -6 1 7 29 44
64 80 60 63 98 126 113 185 10 40 -8 32 -68 -31z"/>
<path d="M7230 6206 c0 -2 7 -7 16 -10 8 -3 12 -2 9 4 -6 10 -25 14 -25 6z"/>
<path d="M7860 6165 c-30 -13 -116 -35 -190 -49 -74 -15 -153 -30 -175 -34
l-40 -8 53 -12 c70 -16 102 -15 176 4 58 15 219 94 231 114 3 6 5 9 3 9 -2 -1
-28 -12 -58 -24z"/>
<path d="M7200 6057 c9 -10 191 -80 195 -75 3 2 -30 18 -73 36 -80 32 -131 48
-122 39z"/>
<path d="M8130 5601 c8 -5 33 -12 55 -15 l40 -6 -45 15 c-50 16 -73 19 -50 6z"/>
<path d="M8522 4570 c0 -14 2 -19 5 -12 2 6 2 18 0 25 -3 6 -5 1 -5 -13z"/>
<path d="M8537 4546 c-6 -16 2 -28 14 -20 12 7 11 34 0 34 -5 0 -11 -6 -14
-14z"/>
<path d="M6290 7680 c0 -5 7 -7 15 -4 8 4 15 8 15 10 0 2 -7 4 -15 4 -8 0 -15
-4 -15 -10z"/>
<path d="M6540 7679 c0 -5 5 -7 10 -4 6 3 10 8 10 11 0 2 -4 4 -10 4 -5 0 -10
-5 -10 -11z"/>
<path d="M6245 7660 c-8 -13 5 -13 25 0 13 8 13 10 -2 10 -9 0 -20 -4 -23 -10z"/>
<path d="M6319 7639 c-6 -3 4 -9 22 -13 18 -3 34 -4 37 -1 3 3 0 5 -7 5 -7 0
-10 4 -7 8 6 9 -30 10 -45 1z"/>
<path d="M6390 7610 c0 -5 9 -10 20 -10 11 0 20 -4 20 -10 0 -5 6 -10 13 -10
6 1 1 10 -12 20 -25 22 -41 26 -41 10z"/>
<path d="M6445 7610 c3 -5 8 -10 11 -10 2 0 4 5 4 10 0 6 -5 10 -11 10 -5 0
-7 -4 -4 -10z"/>
<path d="M6418 7388 c8 -8 17 -8 34 0 22 10 21 11 -11 11 -27 1 -32 -2 -23
-11z"/>
<path d="M6483 7376 c0 -11 4 -12 18 -3 13 8 25 8 45 -1 14 -7 29 -10 32 -8 7
8 -45 26 -72 26 -13 0 -23 -6 -23 -14z"/>
<path d="M6467 7329 c7 -7 15 -10 18 -7 3 3 -2 9 -12 12 -14 6 -15 5 -6 -5z"/>
<path d="M6666 7255 c-16 -12 -22 -12 -28 -2 -5 8 -8 8 -8 1 0 -27 25 -31 48
-8 25 27 18 32 -12 9z"/>
<path d="M6525 6990 c-3 -5 -1 -10 4 -10 6 0 11 5 11 10 0 6 -2 10 -4 10 -3 0
-8 -4 -11 -10z"/>
<path d="M6840 7189 c0 -5 5 -7 10 -4 6 3 10 8 10 11 0 2 -4 4 -10 4 -5 0 -10
-5 -10 -11z"/>
<path d="M7891 5117 c2 -1 13 -9 24 -17 19 -14 19 -14 6 3 -7 9 -18 17 -24 17
-6 0 -8 -1 -6 -3z"/>
<path d="M7720 5195 c0 -11 30 -37 39 -33 5 2 -2 11 -15 21 -13 10 -24 15 -24
12z"/>
<path d="M8031 4484 c0 -11 3 -14 6 -6 3 7 2 16 -1 19 -3 4 -6 -2 -5 -13z"/>
<path d="M7680 4586 c0 -2 7 -7 16 -10 8 -3 12 -2 9 4 -6 10 -25 14 -25 6z"/>
<path d="M4850 4479 c-53 -21 -43 -24 19 -5 24 7 40 15 35 18 -5 2 -29 -3 -54
-13z"/>
<path d="M4727 4445 c-31 -28 -30 -30 8 -13 14 6 25 17 25 25 0 17 0 17 -33
-12z"/>
<path d="M4607 4403 c-3 -5 -2 -15 2 -22 7 -10 10 -10 16 -1 4 6 3 16 -3 22
-5 5 -12 6 -15 1z"/>
<path d="M5125 4379 c-10 -15 1 -23 20 -15 9 3 13 10 10 16 -8 13 -22 13 -30
-1z"/>
<path d="M4805 4360 c3 -5 10 -10 16 -10 5 0 9 5 9 10 0 6 -7 10 -16 10 -8 0
-12 -4 -9 -10z"/>
<path d="M5000 4355 c0 -9 5 -15 11 -13 6 2 11 8 11 13 0 5 -5 11 -11 13 -6 2
-11 -4 -11 -13z"/>
<path d="M4520 4291 c0 -6 5 -13 10 -16 6 -3 10 1 10 9 0 9 -4 16 -10 16 -5 0
-10 -4 -10 -9z"/>
<path d="M5046 4242 c-3 -6 -1 -14 5 -17 14 -9 20 -2 10 14 -6 8 -11 9 -15 3z"/>
<path d="M4860 4170 c0 -5 5 -10 10 -10 6 0 10 5 10 10 0 6 -4 10 -10 10 -5 0
-10 -4 -10 -10z"/>
<path d="M4602 4148 c5 -15 28 -23 28 -10 0 5 -7 13 -16 16 -10 4 -14 1 -12
-6z"/>
<path d="M4465 4110 c3 -5 8 -10 11 -10 2 0 4 5 4 10 0 6 -5 10 -11 10 -5 0
-7 -4 -4 -10z"/>
<path d="M4225 4020 c-3 -5 -2 -10 4 -10 5 0 13 5 16 10 3 6 2 10 -4 10 -5 0
-13 -4 -16 -10z"/>
<path d="M2916 3961 c5 -5 29 -5 54 -1 l45 7 -54 2 c-33 0 -51 -3 -45 -8z"/>
<path d="M3050 3960 c0 -5 4 -10 9 -10 6 0 13 5 16 10 3 6 -1 10 -9 10 -9 0
-16 -4 -16 -10z"/>
<path d="M3000 3795 c0 -2 9 -18 19 -36 13 -21 21 -27 26 -18 5 7 2 17 -7 23
-8 6 -13 17 -11 24 3 6 -2 12 -11 12 -9 0 -16 -2 -16 -5z"/>
<path d="M655 8933 c46 -72 110 -154 169 -218 l65 -70 -27 55 c-26 51 -52 126
-52 146 0 5 16 -19 34 -54 40 -74 83 -132 97 -132 6 0 8 18 4 48 l-6 47 16
-35 c33 -72 80 -133 139 -181 54 -44 78 -55 206 -95 80 -25 168 -54 197 -65
81 -32 92 -20 28 30 -31 24 -54 45 -52 48 3 2 35 -17 72 -43 80 -56 127 -72
383 -124 305 -63 594 -157 820 -265 61 -30 112 -50 112 -44 0 5 -4 9 -9 9 -13
0 -55 60 -47 67 3 3 24 -14 45 -38 63 -69 52 -20 -18 87 -93 142 -238 270
-444 397 -45 27 -73 47 -62 43 36 -12 174 -99 258 -162 103 -78 241 -220 302
-313 27 -39 49 -71 51 -71 2 0 11 27 20 60 30 107 43 66 18 -56 -8 -40 11 -41
92 -3 34 16 69 29 79 29 10 0 13 5 9 12 -5 8 -2 9 10 5 11 -4 15 -3 10 4 -4 8
1 9 17 4 18 -5 20 -4 9 4 -12 8 -9 12 15 22 17 6 39 13 50 15 26 4 163 52 150
53 -5 0 -27 -4 -49 -8 -29 -7 -36 -7 -27 2 7 7 36 12 66 11 29 0 52 3 50 6 -3
4 19 6 48 4 l52 -4 -45 16 c-69 23 -117 11 -279 -72 -79 -40 -146 -72 -148
-70 -7 7 203 130 268 158 89 37 228 53 372 41 60 -5 111 -5 113 -1 7 10 178 9
269 -1 39 -4 78 -5 88 -1 25 8 -97 65 -261 121 -67 23 -121 44 -118 46 14 14
363 -94 455 -142 15 -7 45 -16 66 -20 39 -7 38 -6 -35 43 -77 51 -235 202
-212 202 8 0 49 -33 93 -72 83 -76 200 -152 258 -168 19 -5 37 -7 39 -5 3 2
-1 46 -8 97 -9 70 -9 108 -1 152 6 33 13 61 15 63 2 3 4 -28 3 -69 -2 -88 22
-223 34 -193 4 11 19 62 33 112 28 103 70 191 152 324 53 86 101 141 55 63
-134 -225 -180 -333 -188 -441 -3 -40 -3 -73 0 -73 3 0 33 38 67 85 148 205
311 379 498 529 40 32 75 63 78 67 3 5 -993 9 -2287 9 l-2291 0 17 -27z m1420
-143 c3 -5 1 -10 -4 -10 -6 0 -11 5 -11 10 0 6 2 10 4 10 3 0 8 -4 11 -10z
m1988 -537 c-7 -2 -19 -2 -25 0 -7 3 -2 5 12 5 14 0 19 -2 13 -5z m52 -11 c-3
-3 -11 0 -18 7 -9 10 -8 11 6 5 10 -3 15 -9 12 -12z m-795 -116 c0 -2 -7 -7
-16 -10 -8 -3 -12 -2 -9 4 6 10 25 14 25 6z"/>
<path d="M11470 8949 c30 -4 133 -33 229 -64 170 -53 211 -63 211 -47 -1 8
-13 17 -106 80 l-61 42 -164 -1 c-128 -1 -152 -3 -109 -10z"/>
<path d="M5156 8803 c-6 -14 -5 -15 5 -6 7 7 10 15 7 18 -3 3 -9 -2 -12 -12z"/>
<path d="M3908 8213 c12 -2 30 -2 40 0 9 3 -1 5 -23 4 -22 0 -30 -2 -17 -4z"/>
<path d="M3543 8193 c26 -2 68 -2 95 0 26 2 4 3 -48 3 -52 0 -74 -1 -47 -3z"/>
<path d="M3230 8070 c-8 -5 -10 -10 -5 -10 6 0 17 5 25 10 8 5 11 10 5 10 -5
0 -17 -5 -25 -10z"/>
<path d="M2980 7949 c0 -5 5 -7 10 -4 6 3 10 8 10 11 0 2 -4 4 -10 4 -5 0 -10
-5 -10 -11z"/>
<path d="M11805 6903 c-115 -68 -180 -113 -228 -158 -26 -25 -54 -45 -62 -45
-8 0 -15 -3 -15 -7 0 -16 -76 -43 -117 -42 -29 1 -50 -5 -69 -20 -15 -12 -30
-18 -33 -13 -3 5 -26 19 -51 30 -32 15 -48 17 -58 10 -7 -6 -10 -13 -7 -17 3
-3 10 1 15 9 7 11 10 11 10 2 0 -7 -11 -17 -25 -22 -29 -11 -66 -46 -57 -54 3
-3 0 -6 -6 -6 -6 0 -23 -11 -38 -25 -48 -44 -73 -27 -74 48 0 15 -2 27 -5 27
-19 0 -72 -32 -150 -90 -47 -36 -102 -100 -133 -155 -35 -62 -114 -132 -197
-176 -57 -30 -105 -66 -144 -108 -53 -57 -121 -152 -148 -206 -14 -27 -42 -66
-62 -85 -23 -23 -48 -66 -71 -120 -31 -77 -138 -279 -180 -340 -9 -14 -23 -43
-30 -65 -18 -57 -21 -60 -37 -40 -7 11 -13 13 -13 7 0 -7 -6 -12 -14 -12 -17
0 -25 -35 -65 -265 -16 -93 -32 -222 -35 -285 -6 -131 -13 -163 -32 -156 -9 3
-15 -6 -20 -29 -3 -20 -11 -32 -16 -29 -19 12 -28 -20 -28 -98 0 -42 -6 -103
-14 -135 -14 -55 -28 -206 -46 -493 -8 -112 -18 -188 -35 -258 -4 -18 -10 -22
-26 -17 -16 5 -22 -1 -35 -31 -9 -20 -20 -64 -25 -96 -12 -73 -45 -163 -68
-186 -24 -23 -38 -67 -44 -132 -3 -30 -17 -81 -31 -112 -14 -31 -26 -64 -26
-73 0 -8 -17 -34 -38 -58 -48 -54 -68 -97 -50 -108 7 -5 16 -9 21 -9 4 0 7 -6
7 -14 0 -8 -14 -17 -32 -20 -66 -13 -178 -123 -178 -175 0 -32 -6 -40 -52 -75
-44 -33 -47 -54 -13 -86 51 -48 17 -71 -99 -69 -55 2 -82 -3 -120 -21 -43 -19
-47 -24 -31 -32 10 -6 44 -8 76 -5 65 6 73 -2 32 -31 -47 -33 -128 -44 -198
-28 -33 8 -62 13 -64 10 -3 -2 7 -17 21 -32 14 -15 49 -58 78 -97 29 -38 95
-120 147 -182 116 -139 174 -215 168 -222 -3 -3 -22 14 -43 36 -32 36 -56 48
-85 44 -15 -2 32 -77 85 -135 58 -63 88 -71 88 -21 0 16 6 25 15 25 49 0 305
253 529 520 71 85 238 342 302 465 31 61 76 144 99 185 23 41 70 132 104 203
35 70 68 127 75 127 6 0 12 8 13 18 3 36 22 72 36 66 8 -3 17 2 20 10 6 16 37
11 37 -6 0 -5 -4 -6 -10 -3 -6 3 -7 -1 -4 -9 3 -9 10 -16 16 -16 5 0 7 4 4 8
-8 14 30 41 45 32 7 -5 16 -7 20 -4 10 6 18 -21 11 -33 -4 -5 -14 -13 -22 -17
-8 -3 -5 -4 8 -2 16 3 22 0 19 -8 -3 -6 6 -17 19 -23 13 -6 24 -7 24 -2 0 5
-4 9 -10 9 -5 0 -10 7 -10 15 0 18 17 20 23 3 5 -16 2 -19 60 69 52 79 99 158
145 243 30 56 50 140 33 140 -14 0 -101 -102 -101 -118 0 -7 -5 -10 -11 -6 -7
4 -9 0 -5 -13 7 -20 -13 -44 -46 -56 -15 -5 -18 -1 -18 24 0 34 82 143 199
264 85 88 131 179 135 269 2 28 -3 45 -13 53 -14 10 -14 15 -3 33 8 12 9 19 4
16 -6 -3 -5 5 1 19 12 24 50 35 61 16 8 -12 -29 -43 -39 -34 -5 5 -3 0 4 -9
16 -22 33 -24 25 -3 -4 8 -1 15 6 15 18 0 42 29 36 45 -3 8 0 12 7 10 7 -3 23
19 39 53 54 115 78 173 78 185 0 7 7 22 15 33 20 26 19 33 -4 27 -12 -3 -17
-11 -14 -19 6 -16 -8 -19 -23 -4 -12 12 -35 4 -99 -35 -22 -14 -47 -25 -56
-25 -11 0 -14 -7 -11 -28 3 -21 -4 -36 -27 -61 -17 -18 -28 -37 -25 -42 3 -5
-2 -9 -10 -9 -27 0 -64 22 -76 45 -7 13 -22 26 -33 29 -13 3 -18 10 -14 20 4
10 1 16 -7 16 -8 0 -17 7 -20 16 -3 8 -10 12 -16 9 -5 -3 -10 -1 -10 5 0 6 7
13 15 16 8 4 15 10 15 16 0 5 -4 6 -10 3 -5 -3 -10 3 -10 14 0 24 46 127 60
136 6 3 10 15 10 26 0 10 4 19 10 19 5 0 7 -17 4 -41 -4 -29 -3 -39 5 -35 6 4
11 1 12 -6 0 -7 2 -23 3 -35 1 -12 -1 -20 -6 -17 -4 3 -8 -2 -8 -10 0 -9 5
-16 10 -16 6 0 10 -9 10 -21 0 -11 3 -18 8 -15 4 2 26 1 49 -4 31 -5 46 -4 53
6 6 7 39 26 73 44 57 28 135 86 197 145 14 13 49 73 79 132 30 59 62 120 73
135 10 14 18 35 18 45 0 11 9 28 20 38 22 20 26 35 10 35 -5 0 -10 -8 -10 -17
0 -13 -3 -14 -8 -5 -6 9 -19 1 -48 -28 -21 -22 -44 -38 -51 -35 -7 2 -10 -2
-7 -9 6 -17 -23 -29 -32 -14 -4 7 -3 8 4 4 8 -4 12 0 12 11 0 10 19 37 43 60
121 119 144 142 165 169 24 29 273 530 297 594 7 19 53 118 103 220 149 306
163 343 201 501 34 144 44 254 37 396 -6 141 -21 224 -40 222 -6 0 -38 -17
-71 -36z m-870 -1803 c8 -13 -5 -13 -25 0 -13 8 -13 10 2 10 9 0 20 -4 23 -10z
m-67 -166 c5 -9 12 -15 15 -15 20 3 27 0 27 -13 0 -8 4 -16 9 -18 5 -1 11 -16
13 -33 3 -29 2 -30 -37 -27 -116 7 -110 6 -110 32 0 14 5 24 12 23 7 -2 10 3
7 11 -3 9 3 17 15 21 11 3 20 9 20 13 -4 26 15 30 29 6z m-88 -101 c0 -5 -5
-15 -10 -23 -8 -12 -10 -11 -10 8 0 12 5 22 10 22 6 0 10 -3 10 -7z m-34 -82
c-3 -5 1 -14 9 -21 8 -7 13 -16 10 -20 -3 -5 -1 -11 5 -15 5 -3 10 -16 10 -28
0 -15 3 -18 8 -9 6 9 14 1 27 -27 17 -40 15 -78 -5 -66 -6 4 -9 1 -8 -7 2 -7
-3 -12 -9 -10 -7 1 -13 -2 -13 -8 0 -5 9 -10 19 -10 10 0 21 -7 25 -15 3 -9 0
-15 -9 -15 -8 0 -15 4 -15 9 0 5 -9 12 -20 16 -11 3 -19 12 -17 18 2 14 -61
19 -69 6 -3 -5 0 -9 7 -9 8 0 8 -4 -1 -15 -7 -8 -18 -15 -24 -14 -25 3 -36 -2
-36 -16 0 -8 -5 -15 -11 -15 -5 0 -8 4 -4 9 3 5 1 12 -4 15 -16 10 23 116 42
116 5 0 7 7 3 15 -3 9 7 27 24 45 17 17 30 36 30 43 0 7 5 18 12 25 14 14 22
16 14 3z m1 -233 c-3 -8 -6 -5 -6 6 -1 11 2 17 5 13 3 -3 4 -12 1 -19z m60
-54 c0 -9 -5 -10 -19 -3 -10 5 -18 12 -18 14 0 2 8 3 18 2 10 0 19 -7 19 -13z
m-421 -896 c3 -57 -14 -98 -42 -98 -8 0 -13 -4 -9 -9 8 -14 -26 -19 -52 -8
-56 24 -34 178 28 194 10 3 19 9 19 14 0 4 12 -3 26 -16 20 -19 27 -36 30 -77z"/>
<path d="M10730 4719 c0 -5 5 -7 10 -4 6 3 10 8 10 11 0 2 -4 4 -10 4 -5 0
-10 -5 -10 -11z"/>
<path d="M7640 3576 c0 -30 13 -76 22 -76 16 0 20 30 8 60 -13 31 -30 40 -30
16z"/>
<path d="M8400 3400 c-6 -11 -14 -40 -19 -65 -10 -53 5 -60 44 -20 31 30 34
80 5 95 -15 8 -21 6 -30 -10z"/>
<path d="M10189 3057 c6 -8 8 -17 4 -20 -3 -4 -3 -7 1 -7 9 0 36 26 36 36 0 3
-7 1 -15 -6 -10 -9 -15 -9 -15 -1 0 6 -5 11 -11 11 -8 0 -9 -4 0 -13z"/>
<path d="M10263 3025 c0 -8 4 -15 9 -15 4 0 8 7 8 15 0 8 -4 15 -8 15 -5 0 -9
-7 -9 -15z"/>
<path d="M8474 2725 c-10 -24 5 -36 27 -24 16 8 18 13 8 25 -15 18 -28 18 -35
-1z"/>
<path d="M4308 2173 c7 -3 16 -2 19 1 4 3 -2 6 -13 5 -11 0 -14 -3 -6 -6z"/>
<path d="M8560 1885 c24 -25 46 -45 48 -45 9 0 -73 88 -83 89 -5 1 11 -19 35
-44z"/>
<path d="M8888 1475 c14 -36 122 -245 127 -245 12 0 -85 204 -115 240 -16 20
-19 21 -12 5z"/>
<path d="M4601 864 c-12 -27 -11 -28 4 -12 10 9 16 21 13 28 -2 7 -10 -1 -17
-16z"/>
<path d="M4392 725 c-17 -37 -14 -45 4 -12 9 16 14 31 11 33 -2 2 -9 -7 -15
-21z"/>
<path d="M4433 528 c-15 -20 -25 -38 -20 -38 3 0 12 11 21 25 17 26 16 35 -1
13z"/>
<path d="M4461 145 c0 -38 4 -79 8 -90 5 -11 6 16 4 60 -6 104 -11 119 -12 30z"/>
</g>
</svg>
